<svg xmlns="http://www.w3.org/2000/svg" viewBox="0 0 24 24" fill="#25D366">
  <path d="M17.472 14.382c-.297-.149-1.758-.867-2.03-.967-.273-.099-.472-.148-.672.15-.198.297-.767.966-.94 1.164-.173.198-.347.223-.644.074-.297-.149-1.255-.462-2.39-1.475-.883-.788-1.48-1.761-1.654-2.059-.173-.297-.018-.458.13-.606.134-.133.297-.347.446-.52.149-.173.198-.297.298-.495.099-.198.05-.371-.025-.52-.075-.148-.672-1.611-.92-2.206-.242-.579-.487-.5-.672-.51l-.57-.01c-.198 0-.52.074-.792.372s-1.04 1.016-1.04 2.479 1.065 2.876 1.213 3.074c.149.198 2.095 3.2 5.076 4.487.709.306 1.26.489 1.69.625.71.227 1.357.195 1.87.118.57-.085 1.758-.719 2.006-1.413.248-.695.248-1.29.173-1.413-.074-.124-.272-.198-.57-.347z"></path>
</svg>
